<mxfile host="app.diagrams.net" modified="2020-12-22T09:59:07.940Z" agent="5.0 (Macintosh; Intel Mac OS X 10_15_7) AppleWebKit/537.36 (KHTML, like Gecko) Chrome/87.0.4280.88 Safari/537.36" etag="SYIbVbHqOgBuE4WMC4pg" version="14.1.1" type="github">
  <diagram id="C5RBs43oDa-KdzZeNtuy" name="Page-1">
    <mxGraphModel dx="1186" dy="534" grid="1" gridSize="10" guides="1" tooltips="1" connect="1" arrows="1" fold="1" page="1" pageScale="1" pageWidth="827" pageHeight="1169" math="0" shadow="0">
      <root>
        <mxCell id="WIyWlLk6GJQsqaUBKTNV-0" />
        <mxCell id="WIyWlLk6GJQsqaUBKTNV-1" parent="WIyWlLk6GJQsqaUBKTNV-0" />
        <mxCell id="1Uik45kLceN-WnxneO16-1" value="&lt;font style=&quot;font-size: 18px&quot;&gt;&lt;b&gt;日内处理/EOD处理&lt;/b&gt;&lt;/font&gt;" style="text;html=1;strokeColor=none;fillColor=none;align=center;verticalAlign=middle;whiteSpace=wrap;rounded=0;" vertex="1" parent="WIyWlLk6GJQsqaUBKTNV-1">
          <mxGeometry x="320" y="50" width="210" height="40" as="geometry" />
        </mxCell>
        <mxCell id="1Uik45kLceN-WnxneO16-6" style="edgeStyle=orthogonalEdgeStyle;rounded=0;orthogonalLoop=1;jettySize=auto;html=1;exitX=0.96;exitY=0.7;exitDx=0;exitDy=0;exitPerimeter=0;entryX=0.25;entryY=1;entryDx=0;entryDy=0;entryPerimeter=0;" edge="1" parent="WIyWlLk6GJQsqaUBKTNV-1" source="1Uik45kLceN-WnxneO16-3" target="1Uik45kLceN-WnxneO16-4">
          <mxGeometry relative="1" as="geometry">
            <Array as="points">
              <mxPoint x="175" y="260" />
              <mxPoint x="360" y="260" />
            </Array>
          </mxGeometry>
        </mxCell>
        <mxCell id="1Uik45kLceN-WnxneO16-7" value="FIX消息&lt;br&gt;type=correction/cancel" style="edgeLabel;html=1;align=center;verticalAlign=middle;resizable=0;points=[];" vertex="1" connectable="0" parent="1Uik45kLceN-WnxneO16-6">
          <mxGeometry x="-0.1686" y="-2" relative="1" as="geometry">
            <mxPoint x="1.8000000000000007" as="offset" />
          </mxGeometry>
        </mxCell>
        <mxCell id="1Uik45kLceN-WnxneO16-3" value="FIX" style="ellipse;shape=cloud;whiteSpace=wrap;html=1;" vertex="1" parent="WIyWlLk6GJQsqaUBKTNV-1">
          <mxGeometry x="60" y="200" width="120" height="80" as="geometry" />
        </mxCell>
        <mxCell id="1Uik45kLceN-WnxneO16-5" style="edgeStyle=orthogonalEdgeStyle;rounded=0;orthogonalLoop=1;jettySize=auto;html=1;exitX=0;exitY=0.5;exitDx=0;exitDy=0;entryX=0.4;entryY=0.1;entryDx=0;entryDy=0;entryPerimeter=0;" edge="1" parent="WIyWlLk6GJQsqaUBKTNV-1" source="1Uik45kLceN-WnxneO16-4" target="1Uik45kLceN-WnxneO16-3">
          <mxGeometry relative="1" as="geometry">
            <Array as="points">
              <mxPoint x="255" y="200" />
              <mxPoint x="255" y="160" />
              <mxPoint x="108" y="160" />
            </Array>
          </mxGeometry>
        </mxCell>
        <mxCell id="1Uik45kLceN-WnxneO16-4" value="WEBULL" style="shape=document;whiteSpace=wrap;html=1;boundedLbl=1;" vertex="1" parent="WIyWlLk6GJQsqaUBKTNV-1">
          <mxGeometry x="354" y="160" width="120" height="80" as="geometry" />
        </mxCell>
        <mxCell id="1Uik45kLceN-WnxneO16-11" style="edgeStyle=orthogonalEdgeStyle;rounded=0;orthogonalLoop=1;jettySize=auto;html=1;exitX=0.5;exitY=1;exitDx=0;exitDy=0;exitPerimeter=0;entryX=0.5;entryY=0;entryDx=0;entryDy=0;" edge="1" parent="WIyWlLk6GJQsqaUBKTNV-1" source="1Uik45kLceN-WnxneO16-10">
          <mxGeometry relative="1" as="geometry">
            <mxPoint x="490" y="400" as="targetPoint" />
          </mxGeometry>
        </mxCell>
        <mxCell id="1Uik45kLceN-WnxneO16-10" value="开始" style="strokeWidth=2;html=1;shape=mxgraph.flowchart.terminator;whiteSpace=wrap;" vertex="1" parent="WIyWlLk6GJQsqaUBKTNV-1">
          <mxGeometry x="440" y="280" width="100" height="60" as="geometry" />
        </mxCell>
        <mxCell id="1Uik45kLceN-WnxneO16-15" value="" style="edgeStyle=orthogonalEdgeStyle;rounded=0;orthogonalLoop=1;jettySize=auto;html=1;" edge="1" parent="WIyWlLk6GJQsqaUBKTNV-1" source="1Uik45kLceN-WnxneO16-13" target="1Uik45kLceN-WnxneO16-14">
          <mxGeometry relative="1" as="geometry" />
        </mxCell>
        <mxCell id="1Uik45kLceN-WnxneO16-17" value="" style="edgeStyle=orthogonalEdgeStyle;rounded=0;orthogonalLoop=1;jettySize=auto;html=1;" edge="1" parent="WIyWlLk6GJQsqaUBKTNV-1" source="1Uik45kLceN-WnxneO16-13" target="1Uik45kLceN-WnxneO16-16">
          <mxGeometry relative="1" as="geometry" />
        </mxCell>
        <mxCell id="1Uik45kLceN-WnxneO16-13" value="type类型" style="rhombus;whiteSpace=wrap;html=1;" vertex="1" parent="WIyWlLk6GJQsqaUBKTNV-1">
          <mxGeometry x="450" y="400" width="80" height="80" as="geometry" />
        </mxCell>
        <mxCell id="1Uik45kLceN-WnxneO16-19" value="" style="edgeStyle=orthogonalEdgeStyle;rounded=0;orthogonalLoop=1;jettySize=auto;html=1;" edge="1" parent="WIyWlLk6GJQsqaUBKTNV-1" source="1Uik45kLceN-WnxneO16-14" target="1Uik45kLceN-WnxneO16-18">
          <mxGeometry relative="1" as="geometry" />
        </mxCell>
        <mxCell id="1Uik45kLceN-WnxneO16-14" value="correction&lt;br&gt;修改" style="whiteSpace=wrap;html=1;" vertex="1" parent="WIyWlLk6GJQsqaUBKTNV-1">
          <mxGeometry x="270" y="410" width="120" height="60" as="geometry" />
        </mxCell>
        <mxCell id="1Uik45kLceN-WnxneO16-30" value="" style="edgeStyle=orthogonalEdgeStyle;rounded=0;orthogonalLoop=1;jettySize=auto;html=1;" edge="1" parent="WIyWlLk6GJQsqaUBKTNV-1" source="1Uik45kLceN-WnxneO16-16" target="1Uik45kLceN-WnxneO16-29">
          <mxGeometry relative="1" as="geometry" />
        </mxCell>
        <mxCell id="1Uik45kLceN-WnxneO16-16" value="cancel&lt;br&gt;取消" style="whiteSpace=wrap;html=1;" vertex="1" parent="WIyWlLk6GJQsqaUBKTNV-1">
          <mxGeometry x="590" y="410" width="120" height="60" as="geometry" />
        </mxCell>
        <mxCell id="1Uik45kLceN-WnxneO16-24" value="" style="edgeStyle=orthogonalEdgeStyle;rounded=0;orthogonalLoop=1;jettySize=auto;html=1;" edge="1" parent="WIyWlLk6GJQsqaUBKTNV-1" source="1Uik45kLceN-WnxneO16-18" target="1Uik45kLceN-WnxneO16-23">
          <mxGeometry relative="1" as="geometry">
            <Array as="points">
              <mxPoint x="500" y="580" />
            </Array>
          </mxGeometry>
        </mxCell>
        <mxCell id="1Uik45kLceN-WnxneO16-18" value="新建execution&lt;br&gt;一条correction数据" style="whiteSpace=wrap;html=1;" vertex="1" parent="WIyWlLk6GJQsqaUBKTNV-1">
          <mxGeometry x="270" y="550" width="120" height="60" as="geometry" />
        </mxCell>
        <mxCell id="1Uik45kLceN-WnxneO16-22" value="&lt;div&gt;execution{&lt;/div&gt;&lt;div&gt;type:“trade_correction”&lt;/div&gt;&lt;div&gt;reason_code:&quot;&lt;b&gt;trade_break_correction&lt;/b&gt;&quot;,&lt;/div&gt;&lt;div&gt;original_exec_id:&quot;撤销的execId&quot;,&lt;/div&gt;&lt;div&gt;symbol:&quot;同修改前的记录&quot;,&lt;/div&gt;&lt;div&gt;&lt;b&gt;side:&quot;同修改前的记录一致&quot;&lt;/b&gt;,&lt;/div&gt;&lt;div&gt;status:&quot;normal&quot;,&lt;/div&gt;&lt;div&gt;&lt;b&gt;&quot;exec_time&quot;：&quot;修改前的记录的时间处理&quot;,&lt;/b&gt;&lt;/div&gt;&lt;div&gt;&lt;span&gt;&quot;修改修改的数量、价格、属性等&quot;&lt;/span&gt;&lt;br&gt;&lt;/div&gt;&lt;div&gt;....&lt;/div&gt;&lt;div&gt;}&lt;/div&gt;&lt;div&gt;&lt;br&gt;&lt;/div&gt;&lt;div&gt;之前的数据不做改变&lt;/div&gt;" style="shape=ext;double=1;rounded=1;whiteSpace=wrap;html=1;align=left;" vertex="1" parent="WIyWlLk6GJQsqaUBKTNV-1">
          <mxGeometry x="10" y="490" width="250" height="240" as="geometry" />
        </mxCell>
        <mxCell id="1Uik45kLceN-WnxneO16-28" value="" style="edgeStyle=orthogonalEdgeStyle;rounded=0;orthogonalLoop=1;jettySize=auto;html=1;" edge="1" parent="WIyWlLk6GJQsqaUBKTNV-1" source="1Uik45kLceN-WnxneO16-23" target="1Uik45kLceN-WnxneO16-27">
          <mxGeometry relative="1" as="geometry" />
        </mxCell>
        <mxCell id="1Uik45kLceN-WnxneO16-23" value="调用交易引擎-&lt;br&gt;进行资产变更" style="whiteSpace=wrap;html=1;" vertex="1" parent="WIyWlLk6GJQsqaUBKTNV-1">
          <mxGeometry x="450" y="690" width="120" height="60" as="geometry" />
        </mxCell>
        <mxCell id="1Uik45kLceN-WnxneO16-27" value="结束" style="ellipse;whiteSpace=wrap;html=1;" vertex="1" parent="WIyWlLk6GJQsqaUBKTNV-1">
          <mxGeometry x="450" y="860" width="120" height="50" as="geometry" />
        </mxCell>
        <mxCell id="1Uik45kLceN-WnxneO16-32" style="edgeStyle=orthogonalEdgeStyle;rounded=0;orthogonalLoop=1;jettySize=auto;html=1;exitX=0;exitY=0.5;exitDx=0;exitDy=0;" edge="1" parent="WIyWlLk6GJQsqaUBKTNV-1" source="1Uik45kLceN-WnxneO16-29" target="1Uik45kLceN-WnxneO16-23">
          <mxGeometry relative="1" as="geometry">
            <Array as="points">
              <mxPoint x="500" y="580" />
            </Array>
          </mxGeometry>
        </mxCell>
        <mxCell id="1Uik45kLceN-WnxneO16-29" value="新增execution&lt;br&gt;cancel数据" style="whiteSpace=wrap;html=1;" vertex="1" parent="WIyWlLk6GJQsqaUBKTNV-1">
          <mxGeometry x="590" y="550" width="120" height="60" as="geometry" />
        </mxCell>
        <mxCell id="1Uik45kLceN-WnxneO16-31" value="&lt;div&gt;execution{&lt;/div&gt;&lt;div&gt;type:“trade_cancel”&lt;/div&gt;&lt;div&gt;reason_code:&quot;&lt;b&gt;trade_break_cancel&lt;/b&gt;&quot;,&lt;/div&gt;&lt;div&gt;original_exec_id:&quot;撤销的execId&quot;,&lt;/div&gt;&lt;div&gt;symbol:&quot;同修改前的记录&quot;,&lt;/div&gt;&lt;div&gt;&lt;b&gt;side:&quot;同修改前的记录相反&quot;&lt;/b&gt;,&lt;/div&gt;&lt;div&gt;status:&quot;normal&quot;,&lt;/div&gt;&lt;div&gt;&lt;b&gt;&quot;exec_time&quot;：&quot;修改前的记录的时间处理&quot;,&lt;/b&gt;&lt;/div&gt;&lt;div&gt;&lt;span&gt;&quot;其它相关属性不变化&quot;&lt;/span&gt;&lt;br&gt;&lt;/div&gt;&lt;div&gt;....&lt;/div&gt;&lt;div&gt;}&lt;/div&gt;&lt;div&gt;&lt;br&gt;&lt;/div&gt;&lt;div&gt;之前的数据状态修改为&lt;b&gt;cancel&lt;/b&gt;&lt;/div&gt;" style="shape=ext;double=1;rounded=1;whiteSpace=wrap;html=1;align=left;" vertex="1" parent="WIyWlLk6GJQsqaUBKTNV-1">
          <mxGeometry x="810" y="465" width="250" height="240" as="geometry" />
        </mxCell>
      </root>
    </mxGraphModel>
  </diagram>
</mxfile>
